<svg width="154" height="115" viewBox="0 0 154 115" fill="none" xmlns="http://www.w3.org/2000/svg">
<path fill-rule="evenodd" clip-rule="evenodd" d="M0.803012 114.238C0.807178 114.373 0.811679 114.507 0.816511 114.64C0.842916 114.506 0.86995 114.372 0.897612 114.238H28.7219C31.4833 114.238 33.7219 111.999 33.7219 109.238V94.2445L53.7153 114.238H93.7022L91.9098 112.446C97.458 113.64 102.934 114.238 108.337 114.238C116.255 114.238 123.572 113 130.29 110.523C137.248 108.047 142.886 104.332 147.205 99.3794C151.523 94.1789 153.682 87.6164 153.682 79.6919C153.682 72.015 152.123 65.9478 149.004 61.4902C145.885 57.0327 141.926 53.8133 137.128 51.8322C132.329 49.6034 127.291 47.9937 122.013 47.0032C116.975 46.0126 112.416 45.2697 108.337 44.7744C99.7002 43.5362 94.302 42.0503 92.1427 40.3169C91.7879 39.9507 91.333 39.5581 90.827 39.1214L90.8269 39.1213C88.5954 37.1955 85.3716 34.4134 85.3716 29.2658C85.3716 22.951 90.3699 17.603 93.7022 14.2708C93.7459 14.2271 93.7916 14.1831 93.8392 14.1388C94.1184 13.9899 94.4007 13.842 94.686 13.6952C114.895 3.29813 125.231 3.74995 133.3 4.10268C135.356 4.19259 137.266 4.27606 139.154 4.17179C122.452 -0.845295 79.9958 -4.64579 43.7851 20.2889C40.1482 22.7932 36.8007 25.5339 33.7219 28.4594V0.941806H5.39951C2.63808 0.941806 0.399506 3.18038 0.399506 5.9418V114.238H0.803012ZM2.39951 92.6807C5.54795 73.1703 13.7928 48.6159 31.7219 30.4234V2.94181H5.39951C3.74265 2.94181 2.39951 4.28495 2.39951 5.9418V92.6807ZM87.8713 17.7842C78.4381 24.3633 73.0404 32.4627 67.4248 41.0867C67.9711 45.3146 69.3266 48.7021 71.4016 51.3381C74.3189 55.0442 77.893 57.8087 82.1434 59.656C86.5587 61.5749 90.9553 62.8865 95.3357 63.6011C100.116 64.3412 104.178 64.9578 107.524 65.4513C115.706 66.4464 121.812 67.9651 125.548 70.1685C129.529 72.5163 131.57 76.1502 131.57 80.8063C131.57 83.0979 131.047 85.1858 129.912 86.9822C128.782 88.7703 127.127 90.1418 125.065 91.1396C121.552 92.9501 117.251 94.5784 112.029 94.5784H83.7055C79.9201 94.5784 74.5936 92.7577 71.1482 91.035C70.7109 90.8163 70.2491 90.572 69.7764 90.3121L89.2234 109.759C95.7113 111.415 102.081 112.238 108.337 112.238C116.044 112.238 123.124 111.033 129.598 108.647L129.62 108.639C136.286 106.266 141.617 102.738 145.681 98.0833C149.642 93.3046 151.682 87.2245 151.682 79.6919C151.682 72.2624 150.17 66.6458 147.365 62.6368C144.454 58.4763 140.793 55.5091 136.365 53.6808C136.349 53.6743 136.333 53.6676 136.318 53.6607C136.307 53.6559 136.296 53.6511 136.285 53.6461C131.64 51.4885 126.761 49.9292 121.644 48.9689L121.627 48.9656C116.625 47.9823 112.116 47.248 108.096 46.7598C108.082 46.7581 108.068 46.7562 108.054 46.7542C103.692 46.1289 100.092 45.4336 97.2801 44.6596C94.532 43.9032 92.3062 43.0129 90.8906 41.8764C90.8257 41.8244 90.7642 41.7683 90.7063 41.7085C90.4804 41.4754 90.1403 41.1879 89.7281 40.8395C87.5534 39.0013 83.3716 35.4667 83.3716 29.2658C83.3716 25.5765 84.8293 22.2781 86.6144 19.5537C87.0157 18.9413 87.4383 18.3508 87.8713 17.7842ZM65.8121 43.5622C60.7922 51.2433 55.2888 59.2583 46.3898 66.9255L63.712 84.2478C63.712 84.2478 64.5242 84.7892 65.712 85.5447C67.471 86.6635 70.0536 88.2516 72.0426 89.2461C75.3749 90.9123 80.3732 92.5784 83.7055 92.5784H112.029C116.828 92.5784 120.813 91.0834 124.172 89.3499C127.771 87.6164 129.57 84.7686 129.57 80.8063C129.57 76.844 127.891 73.8723 124.532 71.8912C121.173 69.91 115.415 68.4242 107.258 67.4336C103.899 66.9383 99.8202 66.3192 95.0217 65.5763C90.4632 64.8334 85.9047 63.4714 81.3462 61.4902C76.7877 59.5091 72.949 56.5374 69.83 52.5751C67.883 50.1016 66.5436 47.0973 65.8121 43.5622ZM23.9395 84.4621C13.7337 92.3155 6.06463 99.1297 2.39951 108.989V112.238H28.7219C30.3787 112.238 31.7219 110.895 31.7219 109.238V92.2445L23.9395 84.4621Z" fill="white"/>
</svg>
