<svg width="152" height="113" viewBox="0 0 152 113" fill="none" xmlns="http://www.w3.org/2000/svg">
<path d="M107.034 112.602C100.135 112.602 93.1165 111.621 85.9791 109.66C78.8417 107.944 72.537 105.125 67.065 101.203C64.2101 98.506 62.7826 95.5643 62.7826 92.3774C62.7826 89.1906 62.7826 82.9142 62.7826 82.9142C62.7826 82.9142 67.7391 86.2128 71.0435 87.8621C74.3478 89.5114 79.3043 91.1607 82.6087 91.1607C85.913 91.1607 84.2609 91.1607 95.8261 91.1607C107.391 91.1607 105.699 91.1607 110.696 91.1607C115.454 91.1607 119.406 89.6808 122.737 87.9648C126.305 86.2488 128.09 83.4297 128.09 79.5074C128.09 75.5851 126.424 72.6434 123.094 70.6823C119.763 68.7211 114.053 67.2503 105.964 66.2697C102.633 65.7794 98.5885 65.1665 93.8303 64.4311C89.3099 63.6957 84.7896 62.3474 80.2692 60.3863C75.7489 58.4251 71.9423 55.4834 68.8494 51.5611C65.7565 47.6388 64.2101 42.3682 64.2101 35.7494C64.2101 24.9631 68.0167 16.3831 75.6299 10.0094C83.481 3.63566 93.9492 0.448802 107.034 0.448802C135.63 0.448802 110.696 5.39672 110.696 5.39672C110.696 5.39672 95.8261 10.3446 92.5217 13.6433C89.2174 16.9419 84.2609 22.2359 84.2609 28.487C84.2609 34.7382 89.072 37.4654 90.9753 39.4265C93.1165 41.1425 98.4696 42.6134 107.034 43.8391C111.079 44.3294 115.599 45.0648 120.595 46.0454C125.83 47.026 130.826 48.6194 135.584 50.8257C140.342 52.7868 144.268 55.9737 147.361 60.3863C150.454 64.7988 152 70.8048 152 78.4043C152 86.2488 149.859 92.7451 145.576 97.8931C141.294 102.796 135.703 106.473 128.803 108.925C122.142 111.376 114.886 112.602 107.034 112.602Z" fill="#6CC4A1"/>
<path d="M43.0225 19.6006C7.11482 44.2837 -0.34502 92.1515 0.41351 113C4.29514 93.2358 21.8975 85.6042 44.7292 66.5098C67.5608 47.4155 68.3497 25.989 93.4973 13.0735C118.645 0.157952 128.375 4.15436 137.593 3.64619C121.031 -1.32027 78.9301 -5.08242 43.0225 19.6006Z" fill="#4CACBC"/>
<path d="M13.2174 73.0183L52.8696 112.602H92.5217L33.0435 53.2266L13.2174 73.0183Z" fill="#A0D995"/>
<path d="M0 16.9419C0 7.833 7.39704 0.448802 16.5217 0.448802H33.0435V96.1086C33.0435 105.217 25.6464 112.602 16.5217 112.602H0V16.9419Z" fill="#F6E3C5"/>
<path d="M43.0225 19.6006C7.11482 44.2837 -0.34502 92.1515 0.41351 113C4.29514 93.2358 21.8975 85.6042 44.7292 66.5098C67.5608 47.4155 68.3497 25.989 93.4973 13.0735C118.645 0.157952 128.375 4.15436 137.593 3.64619C121.031 -1.32027 78.9301 -5.08242 43.0225 19.6006Z" fill="#4CACBC"/>
</svg>
